<svg id="SvgjsSvg1037" width="288" height="288" xmlns="http://www.w3.org/2000/svg" version="1.1" xmlns:xlink="http://www.w3.org/1999/xlink" xmlns:svgjs="http://svgjs.com/svgjs"><defs id="SvgjsDefs1038"></defs><g id="SvgjsG1039"><svg xmlns="http://www.w3.org/2000/svg" viewBox="0 0 48 48" width="288" height="288"><path d="M38.4 21.68V16c-2.66 0-4.69-.71-6-2.09a8.9 8.9 0 0 1-2.13-5.64v-.41l-5.37-.13V30.8a5 5 0 1 1-3.24-5.61v-5.5a10.64 10.64 0 0 0-1.7-.14 10.36 10.36 0 1 0 10.36 10.36 10.56 10.56 0 0 0-.08-1.27v-9.15a14.48 14.48 0 0 0 8.16 2.19Z" fill="#ffffff" class="color000 svgShape"></path></svg></g></svg>